<svg width="128" height="128" viewBox="0 0 128 128" fill="none" xmlns="http://www.w3.org/2000/svg">
<path d="M112 24V104C112 106.122 111.157 108.157 109.657 109.657C108.157 111.157 106.122 112 104 112H68C66.9391 112 65.9217 111.579 65.1716 110.828C64.4214 110.078 64 109.061 64 108C64 106.939 64.4214 105.922 65.1716 105.172C65.9217 104.421 66.9391 104 68 104H104V24H24V72C24 73.0609 23.5786 74.0783 22.8284 74.8284C22.0783 75.5786 21.0609 76 20 76C18.9391 76 17.9217 75.5786 17.1716 74.8284C16.4214 74.0783 16 73.0609 16 72V24C16 21.8783 16.8429 19.8434 18.3431 18.3431C19.8434 16.8429 21.8783 16 24 16H104C106.122 16 108.157 16.8429 109.657 18.3431C111.157 19.8434 112 21.8783 112 24ZM62.83 77.17C62.4585 76.7981 62.0173 76.5031 61.5318 76.3018C61.0462 76.1005 60.5257 75.9969 60 75.9969C59.4743 75.9969 58.9538 76.1005 58.4682 76.3018C57.9826 76.5031 57.5415 76.7981 57.17 77.17L32 102.345L22.83 93.17C22.4584 92.7984 22.0172 92.5036 21.5316 92.3024C21.046 92.1013 20.5256 91.9978 20 91.9978C19.4744 91.9978 18.954 92.1013 18.4684 92.3024C17.9828 92.5036 17.5416 92.7984 17.17 93.17C16.7984 93.5416 16.5036 93.9828 16.3024 94.4684C16.1013 94.954 15.9978 95.4744 15.9978 96C15.9978 96.5256 16.1013 97.046 16.3024 97.5316C16.5036 98.0172 16.7984 98.4584 17.17 98.83L29.17 110.83C29.5415 111.202 29.9826 111.497 30.4682 111.698C30.9538 111.9 31.4743 112.003 32 112.003C32.5257 112.003 33.0462 111.9 33.5318 111.698C34.0173 111.497 34.4585 111.202 34.83 110.83L62.83 82.83C63.2019 82.4585 63.4969 82.0174 63.6982 81.5318C63.8995 81.0462 64.0031 80.5257 64.0031 80C64.0031 79.4743 63.8995 78.9538 63.6982 78.4682C63.4969 77.9826 63.2019 77.5415 62.83 77.17Z" fill="#FCEBD0"/>
</svg>
