<svg width="16" height="14" viewBox="0 0 16 14" fill="none" xmlns="http://www.w3.org/2000/svg">
<path d="M15.5 6.87535C15.5 7.04111 15.4341 7.20008 15.3169 7.31729C15.1997 7.4345 15.0407 7.50035 14.875 7.50035H7.99998C7.83422 7.50035 7.67525 7.4345 7.55804 7.31729C7.44083 7.20008 7.37498 7.04111 7.37498 6.87535C7.37498 6.70959 7.44083 6.55062 7.55804 6.43341C7.67525 6.3162 7.83422 6.25035 7.99998 6.25035H14.875C15.0407 6.25035 15.1997 6.3162 15.3169 6.43341C15.4341 6.55062 15.5 6.70959 15.5 6.87535ZM7.99998 2.50035H14.875C15.0407 2.50035 15.1997 2.4345 15.3169 2.31729C15.4341 2.20008 15.5 2.04111 15.5 1.87535C15.5 1.70959 15.4341 1.55062 15.3169 1.43341C15.1997 1.3162 15.0407 1.25035 14.875 1.25035H7.99998C7.83422 1.25035 7.67525 1.3162 7.55804 1.43341C7.44083 1.55062 7.37498 1.70959 7.37498 1.87535C7.37498 2.04111 7.44083 2.20008 7.55804 2.31729C7.67525 2.4345 7.83422 2.50035 7.99998 2.50035ZM14.875 11.2503H7.99998C7.83422 11.2503 7.67525 11.3162 7.55804 11.4334C7.44083 11.5506 7.37498 11.7096 7.37498 11.8753C7.37498 12.0411 7.44083 12.2001 7.55804 12.3173C7.67525 12.4345 7.83422 12.5003 7.99998 12.5003H14.875C15.0407 12.5003 15.1997 12.4345 15.3169 12.3173C15.4341 12.2001 15.5 12.0411 15.5 11.8753C15.5 11.7096 15.4341 11.5506 15.3169 11.4334C15.1997 11.3162 15.0407 11.2503 14.875 11.2503ZM4.43279 0.18316L2.37498 2.24175L1.56717 1.43316C1.44989 1.31588 1.29083 1.25 1.12498 1.25C0.959129 1.25 0.800069 1.31588 0.682794 1.43316C0.565518 1.55043 0.499634 1.70949 0.499634 1.87535C0.499634 2.0412 0.565518 2.20026 0.682794 2.31753L1.93279 3.56753C1.99084 3.62565 2.05977 3.67174 2.13564 3.7032C2.21152 3.73465 2.29285 3.75084 2.37498 3.75084C2.45712 3.75084 2.53845 3.73465 2.61432 3.7032C2.69019 3.67174 2.75912 3.62565 2.81717 3.56753L5.31717 1.06753C5.43444 0.950259 5.50033 0.7912 5.50033 0.625347C5.50033 0.459495 5.43444 0.300435 5.31717 0.18316C5.19989 0.0658841 5.04083 -4.76837e-07 4.87498 -4.76837e-07C4.70913 -4.76837e-07 4.55007 0.0658841 4.43279 0.18316ZM4.43279 5.18316L2.37498 7.24175L1.56717 6.43316C1.44989 6.31588 1.29083 6.25 1.12498 6.25C0.959129 6.25 0.800069 6.31588 0.682794 6.43316C0.565518 6.55043 0.499634 6.70949 0.499634 6.87535C0.499634 6.95747 0.515809 7.03879 0.547236 7.11466C0.578662 7.19053 0.624725 7.25947 0.682794 7.31753L1.93279 8.56753C1.99084 8.62565 2.05977 8.67174 2.13564 8.7032C2.21152 8.73465 2.29285 8.75084 2.37498 8.75084C2.45712 8.75084 2.53845 8.73465 2.61432 8.7032C2.69019 8.67174 2.75912 8.62565 2.81717 8.56753L5.31717 6.06753C5.43444 5.95026 5.50033 5.7912 5.50033 5.62535C5.50033 5.45949 5.43444 5.30043 5.31717 5.18316C5.19989 5.06588 5.04083 5 4.87498 5C4.70913 5 4.55007 5.06588 4.43279 5.18316ZM4.43279 10.1832L2.37498 12.2418L1.56717 11.4332C1.5091 11.3751 1.44016 11.329 1.36429 11.2976C1.28842 11.2662 1.2071 11.25 1.12498 11.25C1.04286 11.25 0.961542 11.2662 0.885671 11.2976C0.8098 11.329 0.740863 11.3751 0.682794 11.4332C0.624725 11.4912 0.578662 11.5602 0.547236 11.636C0.515809 11.7119 0.499634 11.7932 0.499634 11.8753C0.499634 11.9575 0.515809 12.0388 0.547236 12.1147C0.578662 12.1905 0.624725 12.2595 0.682794 12.3175L1.93279 13.5675C1.99084 13.6256 2.05977 13.6717 2.13564 13.7032C2.21152 13.7347 2.29285 13.7508 2.37498 13.7508C2.45712 13.7508 2.53845 13.7347 2.61432 13.7032C2.69019 13.6717 2.75912 13.6256 2.81717 13.5675L5.31717 11.0675C5.43444 10.9503 5.50033 10.7912 5.50033 10.6253C5.50033 10.4595 5.43444 10.3004 5.31717 10.1832C5.19989 10.0659 5.04083 10 4.87498 10C4.70913 10 4.55007 10.0659 4.43279 10.1832Z" fill="white"/>
</svg>
