<svg width="31" height="31" viewBox="0 0 31 31" fill="none" xmlns="http://www.w3.org/2000/svg">
<path d="M15.5 0.46875C12.5271 0.46875 9.62097 1.35032 7.14909 3.00197C4.67722 4.65363 2.75062 7.00119 1.61294 9.74779C0.475263 12.4944 0.177594 15.5167 0.757578 18.4325C1.33756 21.3482 2.76915 24.0265 4.87131 26.1287C6.97347 28.2309 9.65178 29.6624 12.5676 30.2424C15.4833 30.8224 18.5056 30.5247 21.2522 29.3871C23.9988 28.2494 26.3464 26.3228 27.998 23.8509C29.6497 21.379 30.5313 18.4729 30.5313 15.5C30.527 11.5148 28.9421 7.69394 26.1241 4.87595C23.3061 2.05795 19.4853 0.472958 15.5 0.46875ZM7.70688 25.5449C8.54333 24.2367 9.69564 23.1602 11.0576 22.4145C12.4195 21.6687 13.9473 21.2779 15.5 21.2779C17.0527 21.2779 18.5805 21.6687 19.9424 22.4145C21.3044 23.1602 22.4567 24.2367 23.2931 25.5449C21.0649 27.2778 18.3227 28.2187 15.5 28.2187C12.6773 28.2187 9.93507 27.2778 7.70688 25.5449ZM10.875 14.3438C10.875 13.429 11.1463 12.5348 11.6545 11.7742C12.1627 11.0137 12.885 10.4209 13.7301 10.0708C14.5752 9.72075 15.5051 9.62916 16.4023 9.80762C17.2995 9.98607 18.1236 10.4266 18.7704 11.0734C19.4172 11.7202 19.8577 12.5443 20.0361 13.4415C20.2146 14.3386 20.123 15.2686 19.7729 16.1137C19.4229 16.9588 18.8301 17.6811 18.0695 18.1893C17.3089 18.6975 16.4147 18.9688 15.5 18.9688C14.2734 18.9688 13.097 18.4815 12.2296 17.6141C11.3623 16.7468 10.875 15.5704 10.875 14.3438ZM25.0044 23.9421C23.7148 22.0734 21.9016 20.6277 19.7926 19.7868C20.9254 18.8945 21.7521 17.6714 22.1576 16.2875C22.5631 14.9037 22.5273 13.4278 22.0551 12.0653C21.5829 10.7027 20.6979 9.52116 19.5231 8.6849C18.3483 7.84865 16.9421 7.39928 15.5 7.39928C14.058 7.39928 12.6517 7.84865 11.4769 8.6849C10.3021 9.52116 9.41708 10.7027 8.94492 12.0653C8.47276 13.4278 8.43693 14.9037 8.84242 16.2875C9.24791 17.6714 10.0746 18.8945 11.2074 19.7868C9.09845 20.6277 7.28518 22.0734 5.99563 23.9421C4.36614 22.1097 3.30109 19.8453 2.92874 17.4215C2.55639 14.9978 2.89261 12.5182 3.89692 10.2811C4.90122 8.04407 6.53079 6.14504 8.5894 4.81269C10.648 3.48034 13.0479 2.77149 15.5 2.77149C17.9521 2.77149 20.352 3.48034 22.4106 4.81269C24.4692 6.14504 26.0988 8.04407 27.1031 10.2811C28.1074 12.5182 28.4436 14.9978 28.0713 17.4215C27.6989 19.8453 26.6339 22.1097 25.0044 23.9421Z" fill="black"/>
</svg>
